<?xml version="1.0" standalone="no"?>
<!DOCTYPE svg PUBLIC "-//W3C//DTD SVG 1.1//EN"
"http://www.w3.org/Graphics/SVG/1.1/DTD/svg11.dtd">

<svg id="svg" width="744.0945" height="1052.362"> 	
<circle cx="372.047235" cy="265.748025" r="44.2913375" style="stroke:#b7b7b7; stroke-width:1; stroke-dasharray: 10 5; fill:none"/>
<circle cx="372.047235" cy="265.748025" r="88.582675" style="stroke:#6c6b6b; stroke-width:2; fill:none"/>
<circle cx="372.047235" cy="265.748025" r="132.8740125" style="stroke:#b7b7b7; stroke-width:1; stroke-dasharray: 10 5; fill:none"/>
<circle cx="372.047235" cy="265.748025" r="177.16535" style="stroke:#6c6b6b; stroke-width:2; fill:none"/>
<path d="M372.047235,265.748025 C341.147235,107.628025,402.947235,107.628025,372.047235,265.748025" transform="rotate(0 372.047235 265.748025)" fill="#4f74b1" stroke = "black" stroke-width = "0.5px" />
<path d="M372.047235,265.748025 C346.147235,166.628025,397.947235,166.628025,372.047235,265.748025" transform="rotate(30 372.047235 265.748025)" fill="#4f74b1" stroke = "black" stroke-width = "0.5px" />
<path d="M372.047235,265.748025 C334.947235,34.468025,409.147235,34.468025,372.047235,265.748025" transform="rotate(60 372.047235 265.748025)" fill="#4f74b1" stroke = "black" stroke-width = "0.5px" />
<path d="M372.047235,265.748025 C348.147235,190.228025,395.947235,190.228025,372.047235,265.748025" transform="rotate(90 372.047235 265.748025)" fill="#4f74b1" stroke = "black" stroke-width = "0.5px" />
<path d="M372.047235,265.748025 C345.547235,159.548025,398.547235,159.548025,372.047235,265.748025" transform="rotate(120 372.047235 265.748025)" fill="#c74957" stroke = "black" stroke-width = "0.5px" />
<path d="M372.047235,265.748025 C336.947235,58.068025,407.147235,58.068025,372.047235,265.748025" transform="rotate(150 372.047235 265.748025)" fill="#c74957" stroke = "black" stroke-width = "0.5px" />
<path d="M372.047235,265.748025 C347.547235,183.148025,396.547235,183.148025,372.047235,265.748025" transform="rotate(180 372.047235 265.748025)" fill="#c74957" stroke = "black" stroke-width = "0.5px" />
<path d="M372.047235,265.748025 C341.347235,109.988025,402.747235,109.988025,372.047235,265.748025" transform="rotate(210 372.047235 265.748025)" fill="#80a253" stroke = "black" stroke-width = "0.5px" />
<path d="M372.047235,265.748025 C345.947235,164.268025,398.147235,164.268025,372.047235,265.748025" transform="rotate(240 372.047235 265.748025)" fill="#80a253" stroke = "black" stroke-width = "0.5px" />
<path d="M372.047235,265.748025 C338.947235,81.668025,405.147235,81.668025,372.047235,265.748025" transform="rotate(270 372.047235 265.748025)" fill="#eaa94c" stroke = "black" stroke-width = "0.5px" />
<path d="M372.047235,265.748025 C345.947235,164.268025,398.147235,164.268025,372.047235,265.748025" transform="rotate(300 372.047235 265.748025)" fill="#eaa94c" stroke = "black" stroke-width = "0.5px" />
<path d="M372.047235,265.748025 C343.547235,135.948025,400.547235,135.948025,372.047235,265.748025" transform="rotate(330 372.047235 265.748025)" fill="#eaa94c" stroke = "black" stroke-width = "0.5px" />
<text x="357.047235" y="82.582675" font-size="12" transform="rotate(0 372.047235 265.748025)" fill="#4f74b1" >Aries</text>
<text x="354.047235" y="82.582675" font-size="12" transform="rotate(30 372.047235 265.748025)" fill="#4f74b1" >Taurus</text>
<text x="354.047235" y="82.582675" font-size="12" transform="rotate(60 372.047235 265.748025)" fill="#4f74b1" >Gemini</text>
<text x="354.047235" y="82.582675" font-size="12" transform="rotate(90 372.047235 265.748025)" fill="#4f74b1" >Cancer</text>
<text x="363.047235" y="82.582675" font-size="12" transform="rotate(120 372.047235 265.748025)" fill="#c74957" >Leo</text>
<text x="357.047235" y="82.582675" font-size="12" transform="rotate(150 372.047235 265.748025)" fill="#c74957" >Virgo</text>
<text x="357.047235" y="82.582675" font-size="12" transform="rotate(180 372.047235 265.748025)" fill="#c74957" >Libra</text>
<text x="351.047235" y="82.582675" font-size="12" transform="rotate(210 372.047235 265.748025)" fill="#80a253" >Scorpio</text>
<text x="339.047235" y="82.582675" font-size="12" transform="rotate(240 372.047235 265.748025)" fill="#80a253" >Sagittarius</text>
<text x="345.047235" y="82.582675" font-size="12" transform="rotate(270 372.047235 265.748025)" fill="#eaa94c" >Capricorn</text>
<text x="348.047235" y="82.582675" font-size="12" transform="rotate(300 372.047235 265.748025)" fill="#eaa94c" >Aquarius</text>
<text x="354.047235" y="82.582675" font-size="12" transform="rotate(330 372.047235 265.748025)" fill="#eaa94c" >Pisces</text>
</svg>
